<svg width="116" height="24" viewBox="0 0 116 24" fill="none" xmlns="http://www.w3.org/2000/svg">
<path fill-rule="evenodd" clip-rule="evenodd" d="M66 19H62.9231V13.3967C62.9231 11.8596 62.2715 11.0022 61.1031 11.0022C59.8315 11.0022 59.0769 11.8956 59.0769 13.3967V19H56V8.59243H59.0769V9.76288C59.0769 9.76288 60.0423 8 62.2177 8C64.3938 8 66 9.3818 66 12.2415C66 15.1004 66 19 66 19ZM51.5003 6C50.6715 6 50 5.32819 50 4.4997C50 3.67181 50.6715 3 51.5003 3C52.3285 3 53 3.67181 53 4.4997C53.0006 5.32819 52.3285 6 51.5003 6ZM50 19H53V9H50V19Z" fill="white"/>
<path fill-rule="evenodd" clip-rule="evenodd" d="M13.457 19V12.25H15.643L16 9.25H13.457V7.789C13.457 7.0165 13.4781 6.25 14.6295 6.25H15.7958V4.105C15.7958 4.07275 14.794 4 13.7805 4C11.664 4 10.3387 5.24275 10.3387 7.525V9.25H8V12.25H10.3387V19H13.457Z" fill="white"/>
<path fill-rule="evenodd" clip-rule="evenodd" d="M110.875 10.6027H104.148C104.148 11.3023 104.148 12.7015 104.144 13.4011H108.042C107.892 14.1007 107.363 15.0802 106.614 15.5734C106.614 15.5727 106.613 15.5776 106.612 15.5769C105.617 16.2338 104.304 16.3829 103.329 16.187C101.801 15.8833 100.591 14.7752 100.1 13.3675C100.103 13.3654 100.105 13.3459 100.107 13.3445C99.8001 12.4714 99.8001 11.3023 100.107 10.6027H100.107C100.503 9.31683 101.749 8.14359 103.279 7.82247C104.51 7.56152 105.898 7.84416 106.92 8.79982C107.055 8.6669 108.799 6.96405 108.93 6.82553C105.441 3.66541 99.8537 4.77708 97.7631 8.85789H97.7624C97.7624 8.85789 97.7631 8.85789 97.7588 8.86558C96.7246 10.87 96.7675 13.2318 97.766 15.1404C97.7631 15.1425 97.761 15.1438 97.7588 15.1459C98.6637 16.902 100.31 18.2487 102.295 18.7615C104.402 19.3142 107.085 18.9364 108.882 17.3112C108.882 17.3119 108.883 17.3126 108.884 17.3133C110.406 15.9421 111.354 13.6061 110.875 10.6027Z" fill="white"/>
</svg>
